<svg xmlns="http://www.w3.org/2000/svg" xmlns:xlink="http://www.w3.org/1999/xlink" width="40" zoomAndPan="magnify" viewBox="0 0 30 30.000001" height="40" preserveAspectRatio="xMidYMid meet" version="1.0"><defs><clipPath id="eacde461ce"><path d="M 0.484375 0 L 29.515625 0 L 29.515625 29.03125 L 0.484375 29.03125 Z M 0.484375 0 " clip-rule="nonzero"/></clipPath></defs><g clip-path="url(#eacde461ce)"><path fill="#000000" d="M 15 29.03125 C 14.746094 29.03125 14.539062 28.824219 14.539062 28.570312 L 14.539062 14.976562 L 0.945312 14.976562 C 0.691406 14.976562 0.484375 14.769531 0.484375 14.515625 C 0.484375 14.261719 0.691406 14.054688 0.945312 14.054688 L 14.539062 14.054688 L 14.539062 0.460938 C 14.539062 0.207031 14.746094 0 15 0 C 15.253906 0 15.460938 0.207031 15.460938 0.460938 L 15.460938 14.054688 L 29.054688 14.054688 C 29.308594 14.054688 29.515625 14.261719 29.515625 14.515625 C 29.515625 14.769531 29.308594 14.976562 29.054688 14.976562 L 15.460938 14.976562 L 15.460938 28.570312 C 15.460938 28.824219 15.253906 29.03125 15 29.03125 Z M 15 29.03125 " fill-opacity="1" fill-rule="nonzero"/></g></svg>