<svg xmlns="http://www.w3.org/2000/svg" xmlns:xlink="http://www.w3.org/1999/xlink" width="80" zoomAndPan="magnify" viewBox="0 0 60 60" height="80" preserveAspectRatio="xMidYMid meet" version="1.0"><path fill="#8ae0db" d="M 30 0 C 13.457031 0 0 13.457031 0 30 C 0 46.542969 13.457031 60 30 60 C 46.542969 60 60 46.542969 60 30 C 60 13.457031 46.542969 0 30 0 Z M 30 55.664062 C 15.847656 55.664062 4.335938 44.152344 4.335938 30 C 4.335938 15.847656 15.847656 4.335938 30 4.335938 C 44.148438 4.335938 55.664062 15.847656 55.664062 30 C 55.664062 44.152344 44.148438 55.664062 30 55.664062 Z M 30 55.664062 " fill-opacity="1" fill-rule="nonzero"/><path fill="#8ae0db" d="M 38.625 37.445312 L 32.167969 33.796875 L 32.167969 15.902344 C 32.167969 14.707031 31.199219 13.734375 30 13.734375 C 28.800781 13.734375 27.832031 14.707031 27.832031 15.902344 L 27.832031 35.058594 C 27.832031 35.085938 27.835938 35.109375 27.839844 35.132812 C 27.839844 35.21875 27.851562 35.296875 27.863281 35.378906 C 27.871094 35.441406 27.882812 35.503906 27.894531 35.566406 C 27.914062 35.636719 27.9375 35.707031 27.960938 35.777344 C 27.984375 35.839844 28.003906 35.902344 28.03125 35.964844 C 28.0625 36.03125 28.101562 36.09375 28.136719 36.15625 C 28.171875 36.214844 28.203125 36.269531 28.242188 36.324219 C 28.285156 36.382812 28.332031 36.4375 28.382812 36.492188 C 28.425781 36.542969 28.472656 36.59375 28.519531 36.636719 C 28.570312 36.683594 28.625 36.730469 28.679688 36.773438 C 28.742188 36.816406 28.800781 36.863281 28.863281 36.902344 C 28.890625 36.917969 28.90625 36.933594 28.933594 36.949219 L 36.488281 41.222656 C 36.828125 41.414062 37.191406 41.503906 37.554688 41.503906 C 38.3125 41.503906 39.046875 41.105469 39.445312 40.402344 C 40.03125 39.359375 39.664062 38.035156 38.625 37.445312 Z M 38.625 37.445312 " fill-opacity="1" fill-rule="nonzero"/></svg>